<svg xmlns="http://www.w3.org/2000/svg" viewBox="-0.009998349472880363 0 104.88001251220703 117.99134826660156" style="overflow: visible;"><circle id="Layer_1-2" dataName="Layer 1" class="cls-1" cx="97.72" cy="39.27" r="7.15" style="fill: #faca2b;"></circle><path id="Layer_1-2" dataName="Layer 1" class="cls-1" d="M92.59,51.59A4.5,4.5,0,1,0,92,57.92,4.51,4.51,0,0,0,92.59,51.59Z" style="fill: #faca2b;"></path><path id="Layer_1-2" dataName="Layer 1" class="cls-2" d="M48.5,109a4.5,4.5,0,1,0,4.77,4.21A4.5,4.5,0,0,0,48.5,109Z" style="fill: #ee3923;"></path><circle id="Layer_1-2" dataName="Layer 1" class="cls-2" cx="77.42" cy="97.47" r="7.91" style="fill: #ee3923;"></circle><circle id="Layer_1-2" dataName="Layer 1" class="cls-3" cx="36.95" cy="110.2" r="3.18" style="fill: #f15942;"></circle><circle id="Layer_1-2" dataName="Layer 1" class="cls-4" cx="25.29" cy="6.33" r="3.18" style="fill: #f8b0be;"></circle><circle id="Layer_1-2" dataName="Layer 1" class="cls-4" cx="10.67" cy="8.01" r="8.01" style="fill: #f8b0be;"></circle><path id="Layer_1-2" dataName="Layer 1" class="cls-5" d="M14.31,65.05a7.16,7.16,0,1,0-7.16,7.16A7.16,7.16,0,0,0,14.31,65.05Z" style="fill: #4c8df9; fill-opacity: 1;"></path><path id="Layer_1-2" dataName="Layer 1" class="cls-5" d="M13.31,48A5.06,5.06,0,1,0,8.25,53,5.07,5.07,0,0,0,13.31,48Z" style="fill: #4c8df9; fill-opacity: 1;"></path><path id="Layer_1-2" dataName="Layer 1" class="cls-6" d="M54.43,63.78,54,62.93Z" style="fill: none;"></path><path id="Layer_1-2" dataName="Layer 1" class="cls-6" d="M53,60.25c-.11-.3-.21-.59-.3-.89C52.81,59.66,52.91,60,53,60.25Z" style="fill: none;"></path><path id="Layer_1-2" dataName="Layer 1" class="cls-6" d="M54.93,64.85h0l-.11-.2C54.87,64.72,54.89,64.78,54.93,64.85Z" style="fill: none;"></path><path id="Layer_1-2" dataName="Layer 1" class="cls-6" d="M53.68,62c-.11-.29-.23-.58-.34-.88C53.45,61.46,53.57,61.75,53.68,62Z" style="fill: none;"></path><path id="Layer_1-2" dataName="Layer 1" class="cls-6" d="M51.25,52.71c0-.32-.09-.63-.12-1C51.16,52.08,51.21,52.39,51.25,52.71Z" style="fill: none;"></path><path id="Layer_1-2" dataName="Layer 1" class="cls-6" d="M52.44,58.41c-.09-.3-.18-.6-.26-.9C52.26,57.81,52.35,58.11,52.44,58.41Z" style="fill: none;"></path><path id="Layer_1-2" dataName="Layer 1" class="cls-6" d="M51.55,54.64c-.06-.31-.12-.62-.17-.93C51.43,54,51.49,54.33,51.55,54.64Z" style="fill: none;"></path><path id="Layer_1-2" dataName="Layer 1" class="cls-6" d="M51,50h0c0,.26.05.53.07.79L51,50Z" style="fill: none;"></path><path id="Layer_1-2" dataName="Layer 1" class="cls-6" d="M52,56.54c-.07-.3-.15-.6-.21-.91C51.8,55.94,51.88,56.24,52,56.54Z" style="fill: none;"></path><path id="Layer_1-2" dataName="Layer 1" class="cls-4" d="M51,49.8V50h0C51,49.9,51,49.85,51,49.8Z" style="fill: #f8b0be;"></path><path id="Layer_1-2" dataName="Layer 1" class="cls-4" d="M14.27,33.84c-.07-.18-.13-.36-.19-.54C14.14,33.48,14.2,33.66,14.27,33.84Z" style="fill: #f8b0be;"></path><path id="Layer_1-2" dataName="Layer 1" class="cls-4" d="M49.4,44.78,38.33,23.41a13.13,13.13,0,0,0-11.65-7.09h-.05a13.14,13.14,0,0,0-12.82,16,39.5,39.5,0,0,1,6.47-.54A39,39,0,0,1,49.4,44.78Z" style="fill: #f8b0be;"></path><path id="Layer_1-2" dataName="Layer 1" class="cls-4" d="M50.92,46.59c0,.34,0,.68,0,1,0-.54,0-1.08,0-1.61l-.45.88.26-.5Z" style="fill: #f8b0be;"></path><path id="Layer_1-2" dataName="Layer 1" class="cls-4" d="M14,32.94c-.05-.18-.1-.35-.14-.52C13.88,32.59,13.93,32.76,14,32.94Z" style="fill: #f8b0be;"></path><path id="Layer_1-2" dataName="Layer 1" class="cls-4" d="M14.64,34.77c-.08-.19-.17-.39-.25-.59C14.47,34.38,14.56,34.58,14.64,34.77Z" style="fill: #f8b0be;"></path><path id="Layer_1-2" dataName="Layer 1" class="cls-4" d="M15.22,35.92c-.16-.29-.31-.57-.45-.86C14.91,35.35,15.06,35.63,15.22,35.92Z" style="fill: #f8b0be;"></path><path id="Layer_1-2" dataName="Layer 1" class="cls-5" d="M54.93,64.85c0-.07-.06-.13-.1-.2l-.4-.87L54,62.93,53.68,62c-.11-.29-.23-.58-.34-.88s-.22-.61-.32-.91-.21-.59-.3-.89-.19-.63-.28-1-.18-.6-.26-.9-.16-.64-.23-1-.15-.6-.21-.91-.13-.66-.19-1-.12-.62-.17-.93-.09-.66-.13-1-.09-.63-.12-1-.06-.67-.09-1,0-.53-.07-.79c-.94,0-1.89.08-2.84.08A47.88,47.88,0,0,1,16.47,38.13l19.28,34v6.15A35.76,35.76,0,0,1,54.93,64.85Z" style="fill: #4c8df9; fill-opacity: 1;"></path><path id="Layer_1-2" dataName="Layer 1" class="cls-7" d="M48.13,50C49.08,50,50,50,51,50h0V49.8c0-.73-.07-1.46-.07-2.19,0-.34,0-.68,0-1l-.17-.21-.26.5-1.09-2.1a39,39,0,0,0-29.12-13,39.5,39.5,0,0,0-6.47.54l0,.13c0,.17.09.34.14.52s.06.24.1.36.12.36.19.54l.12.34c.08.2.17.4.25.59s.09.19.13.29c.14.29.29.57.45.86l1.25,2.21A47.88,47.88,0,0,0,48.13,50Z" style="fill: #3263c9;"></path><path id="Layer_1-2" dataName="Layer 1" class="cls-1" d="M51,49.8c0,.05,0,.1,0,.15l.06.8c0,.34.05.68.09,1s.08.63.12,1,.08.67.13,1,.11.62.17.93.12.66.19,1,.14.61.21.91.15.65.23,1,.17.6.26.9.18.63.28,1,.19.59.3.89.2.61.32.91.23.59.34.88l.36.89.39.85.4.87.11.2a35.53,35.53,0,0,1,9.74-1.35,37.48,37.48,0,0,1,5.11.36l15.9-27.92a13.12,13.12,0,1,0-23-12.53L50.94,46c0,.53,0,1.07,0,1.61C50.9,48.34,50.93,49.07,51,49.8Z" style="fill: #faca2b;"></path><path id="Layer_1-2" dataName="Layer 1" class="cls-2" d="M59.31,71.75a39,39,0,0,1-16,30.59l.08,0,.17.09c.33.18.67.34,1,.49l.23.1c.38.16.78.3,1.17.43l.26.07c.36.11.74.21,1.12.29l.17,0c.42.09.84.15,1.27.2l.3,0c.44,0,.89.07,1.34.07A14.66,14.66,0,0,0,65.08,89.52V77.62A38.59,38.59,0,0,1,59.31,71.75Z" style="fill: #ee3923;"></path><path id="Layer_1-2" dataName="Layer 1" class="cls-8" d="M59.31,71.75a38.92,38.92,0,0,1-4.38-6.9A35.76,35.76,0,0,0,35.75,78.27V89.52c0,.45,0,.89.07,1.33,0,.12,0,.23,0,.34,0,.4.1.8.17,1.18l0,.13a10.75,10.75,0,0,0,.32,1.24c0,.1.06.21.1.31.11.35.23.7.37,1,0,.06,0,.13.08.19.16.38.34.76.54,1.13l.15.27c.17.31.35.6.55.9a2.26,2.26,0,0,0,.13.2c.23.34.48.67.74,1l.19.23c.22.26.45.51.69.76.07.06.13.13.2.2.29.29.59.56.91.83l.21.16a9.79,9.79,0,0,0,.82.62l.26.18c.31.21.64.41,1,.6A39,39,0,0,0,59.31,71.75Z" style="fill: #e12028;"></path><path id="Layer_1-2" dataName="Layer 1" class="cls-9" d="M65.08,72.12l4.71-8.26a37.48,37.48,0,0,0-5.11-.36,35.53,35.53,0,0,0-9.74,1.35h0A38.91,38.91,0,0,0,65.08,77.62Z" style="fill: #ff5a0b;"></path></svg>