<svg xmlns="http://www.w3.org/2000/svg" viewBox="98.83500000000001 5.629997253417969 377.3306172489371 503.62500381469727"><rect height="100%" width="100%" x="98.83500000000001" y="5.629997253417969" fill="rgba(26, 50, 79, 1)"/> <svg xmlns="http://www.w3.org/2000/svg" viewBox="-0.009998349472880363 0 104.88001251220703 117.99134826660156" height="266.99999999999994" width="237.33061724893713" y="75.62999725341797" x="168.835" preserveAspectRatio="xMinYMin" style="overflow: visible;"><circle id="Layer_1-2" dataName="Layer 1" class="cls-1" cx="97.72" cy="39.27" r="7.15" style="fill: #faca2b;"></circle><path id="Layer_1-2" dataName="Layer 1" class="cls-1" d="M92.59,51.59A4.5,4.5,0,1,0,92,57.92,4.51,4.51,0,0,0,92.59,51.59Z" style="fill: #faca2b;"></path><path id="Layer_1-2" dataName="Layer 1" class="cls-2" d="M48.5,109a4.5,4.5,0,1,0,4.77,4.21A4.5,4.5,0,0,0,48.5,109Z" style="fill: #ee3923;"></path><circle id="Layer_1-2" dataName="Layer 1" class="cls-2" cx="77.42" cy="97.47" r="7.91" style="fill: #ee3923;"></circle><circle id="Layer_1-2" dataName="Layer 1" class="cls-3" cx="36.95" cy="110.2" r="3.18" style="fill: #f15942;"></circle><circle id="Layer_1-2" dataName="Layer 1" class="cls-4" cx="25.29" cy="6.33" r="3.18" style="fill: #f8b0be;"></circle><circle id="Layer_1-2" dataName="Layer 1" class="cls-4" cx="10.67" cy="8.01" r="8.01" style="fill: #f8b0be;"></circle><path id="Layer_1-2" dataName="Layer 1" class="cls-5" d="M14.31,65.05a7.16,7.16,0,1,0-7.16,7.16A7.16,7.16,0,0,0,14.31,65.05Z" style="fill: #4c8df9; fill-opacity: 1;"></path><path id="Layer_1-2" dataName="Layer 1" class="cls-5" d="M13.31,48A5.06,5.06,0,1,0,8.25,53,5.07,5.07,0,0,0,13.31,48Z" style="fill: #4c8df9; fill-opacity: 1;"></path><path id="Layer_1-2" dataName="Layer 1" class="cls-6" d="M54.43,63.78,54,62.93Z" style="fill: none;"></path><path id="Layer_1-2" dataName="Layer 1" class="cls-6" d="M53,60.25c-.11-.3-.21-.59-.3-.89C52.81,59.66,52.91,60,53,60.25Z" style="fill: none;"></path><path id="Layer_1-2" dataName="Layer 1" class="cls-6" d="M54.93,64.85h0l-.11-.2C54.87,64.72,54.89,64.78,54.93,64.85Z" style="fill: none;"></path><path id="Layer_1-2" dataName="Layer 1" class="cls-6" d="M53.68,62c-.11-.29-.23-.58-.34-.88C53.45,61.46,53.57,61.75,53.68,62Z" style="fill: none;"></path><path id="Layer_1-2" dataName="Layer 1" class="cls-6" d="M51.25,52.71c0-.32-.09-.63-.12-1C51.16,52.08,51.21,52.39,51.25,52.71Z" style="fill: none;"></path><path id="Layer_1-2" dataName="Layer 1" class="cls-6" d="M52.44,58.41c-.09-.3-.18-.6-.26-.9C52.26,57.81,52.35,58.11,52.44,58.41Z" style="fill: none;"></path><path id="Layer_1-2" dataName="Layer 1" class="cls-6" d="M51.55,54.64c-.06-.31-.12-.62-.17-.93C51.43,54,51.49,54.33,51.55,54.64Z" style="fill: none;"></path><path id="Layer_1-2" dataName="Layer 1" class="cls-6" d="M51,50h0c0,.26.05.53.07.79L51,50Z" style="fill: none;"></path><path id="Layer_1-2" dataName="Layer 1" class="cls-6" d="M52,56.54c-.07-.3-.15-.6-.21-.91C51.8,55.94,51.88,56.24,52,56.54Z" style="fill: none;"></path><path id="Layer_1-2" dataName="Layer 1" class="cls-4" d="M51,49.8V50h0C51,49.9,51,49.85,51,49.8Z" style="fill: #f8b0be;"></path><path id="Layer_1-2" dataName="Layer 1" class="cls-4" d="M14.27,33.84c-.07-.18-.13-.36-.19-.54C14.14,33.48,14.2,33.66,14.27,33.84Z" style="fill: #f8b0be;"></path><path id="Layer_1-2" dataName="Layer 1" class="cls-4" d="M49.4,44.78,38.33,23.41a13.13,13.13,0,0,0-11.65-7.09h-.05a13.14,13.14,0,0,0-12.82,16,39.5,39.5,0,0,1,6.47-.54A39,39,0,0,1,49.4,44.78Z" style="fill: #f8b0be;"></path><path id="Layer_1-2" dataName="Layer 1" class="cls-4" d="M50.92,46.59c0,.34,0,.68,0,1,0-.54,0-1.08,0-1.61l-.45.88.26-.5Z" style="fill: #f8b0be;"></path><path id="Layer_1-2" dataName="Layer 1" class="cls-4" d="M14,32.94c-.05-.18-.1-.35-.14-.52C13.88,32.59,13.93,32.76,14,32.94Z" style="fill: #f8b0be;"></path><path id="Layer_1-2" dataName="Layer 1" class="cls-4" d="M14.64,34.77c-.08-.19-.17-.39-.25-.59C14.47,34.38,14.56,34.58,14.64,34.77Z" style="fill: #f8b0be;"></path><path id="Layer_1-2" dataName="Layer 1" class="cls-4" d="M15.22,35.92c-.16-.29-.31-.57-.45-.86C14.91,35.35,15.06,35.63,15.22,35.92Z" style="fill: #f8b0be;"></path><path id="Layer_1-2" dataName="Layer 1" class="cls-5" d="M54.93,64.85c0-.07-.06-.13-.1-.2l-.4-.87L54,62.93,53.68,62c-.11-.29-.23-.58-.34-.88s-.22-.61-.32-.91-.21-.59-.3-.89-.19-.63-.28-1-.18-.6-.26-.9-.16-.64-.23-1-.15-.6-.21-.91-.13-.66-.19-1-.12-.62-.17-.93-.09-.66-.13-1-.09-.63-.12-1-.06-.67-.09-1,0-.53-.07-.79c-.94,0-1.89.08-2.84.08A47.88,47.88,0,0,1,16.47,38.13l19.28,34v6.15A35.76,35.76,0,0,1,54.93,64.85Z" style="fill: #4c8df9; fill-opacity: 1;"></path><path id="Layer_1-2" dataName="Layer 1" class="cls-7" d="M48.13,50C49.08,50,50,50,51,50h0V49.8c0-.73-.07-1.46-.07-2.19,0-.34,0-.68,0-1l-.17-.21-.26.5-1.09-2.1a39,39,0,0,0-29.12-13,39.5,39.5,0,0,0-6.47.54l0,.13c0,.17.09.34.14.52s.06.24.1.36.12.36.19.54l.12.34c.08.2.17.4.25.59s.09.19.13.29c.14.29.29.57.45.86l1.25,2.21A47.88,47.88,0,0,0,48.13,50Z" style="fill: #3263c9;"></path><path id="Layer_1-2" dataName="Layer 1" class="cls-1" d="M51,49.8c0,.05,0,.1,0,.15l.06.8c0,.34.05.68.09,1s.08.63.12,1,.08.67.13,1,.11.62.17.93.12.66.19,1,.14.61.21.91.15.65.23,1,.17.6.26.9.18.63.28,1,.19.59.3.89.2.61.32.91.23.59.34.88l.36.89.39.85.4.87.11.2a35.53,35.53,0,0,1,9.74-1.35,37.48,37.48,0,0,1,5.11.36l15.9-27.92a13.12,13.12,0,1,0-23-12.53L50.94,46c0,.53,0,1.07,0,1.61C50.9,48.34,50.93,49.07,51,49.8Z" style="fill: #faca2b;"></path><path id="Layer_1-2" dataName="Layer 1" class="cls-2" d="M59.31,71.75a39,39,0,0,1-16,30.59l.08,0,.17.09c.33.18.67.34,1,.49l.23.1c.38.16.78.3,1.17.43l.26.07c.36.11.74.21,1.12.29l.17,0c.42.09.84.15,1.27.2l.3,0c.44,0,.89.07,1.34.07A14.66,14.66,0,0,0,65.08,89.52V77.62A38.59,38.59,0,0,1,59.31,71.75Z" style="fill: #ee3923;"></path><path id="Layer_1-2" dataName="Layer 1" class="cls-8" d="M59.31,71.75a38.92,38.92,0,0,1-4.38-6.9A35.76,35.76,0,0,0,35.75,78.27V89.52c0,.45,0,.89.07,1.33,0,.12,0,.23,0,.34,0,.4.1.8.17,1.18l0,.13a10.75,10.75,0,0,0,.32,1.24c0,.1.06.21.1.31.11.35.23.7.37,1,0,.06,0,.13.08.19.16.38.34.76.54,1.13l.15.27c.17.31.35.6.55.9a2.26,2.26,0,0,0,.13.2c.23.34.48.67.74,1l.19.23c.22.26.45.51.69.76.07.06.13.13.2.2.29.29.59.56.91.83l.21.16a9.79,9.79,0,0,0,.82.62l.26.18c.31.21.64.41,1,.6A39,39,0,0,0,59.31,71.75Z" style="fill: #e12028;"></path><path id="Layer_1-2" dataName="Layer 1" class="cls-9" d="M65.08,72.12l4.71-8.26a37.48,37.48,0,0,0-5.11-.36,35.53,35.53,0,0,0-9.74,1.35h0A38.91,38.91,0,0,0,65.08,77.62Z" style="fill: #ff5a0b;"></path></svg> <svg y="365.314998626709" viewBox="2.130000114440918 -1.8199999332427979 221.70999145507812 73.94000244140625" x="176.64500427246094" height="73.94000244140625" width="221.70999145507812" style="overflow: visible;"><g fill="#ffffff" fill-opacity="1" style=""><path d="M22.50 57L22.50 38.68L2.13 2.05L11.17 2.05L27.51 32.38L25.23 32.53L41.42 2.05L50.39 2.05L29.87 38.68L29.87 57L22.50 57ZM58.60 57.76L58.60 57.76Q54.19 57.76 50.58 55.86Q46.97 53.96 44.88 50.27Q42.79 46.59 42.79 41.27L42.79 41.27Q42.79 36.02 45.00 32.19Q47.20 28.35 50.89 26.30Q54.57 24.24 58.98 24.24L58.98 24.24Q63.39 24.24 66.43 26.26Q69.47 28.27 71.06 31.01L71.06 31.01L70.61 32.22L71.29 25.54L77.83 25.54L77.83 57L70.76 57L70.76 48.79L71.52 50.62Q71.22 51.38 70.19 52.55Q69.16 53.73 67.45 54.95Q65.74 56.16 63.54 56.96Q61.34 57.76 58.60 57.76ZM60.50 51.91L60.50 51.91Q63.16 51.91 65.29 50.92Q67.42 49.93 68.82 48.15Q70.23 46.36 70.76 43.85L70.76 43.85L70.76 37.70Q70.15 35.42 68.63 33.71Q67.11 32.00 64.98 31.05Q62.86 30.10 60.27 30.10L60.27 30.10Q57.46 30.10 55.10 31.46Q52.75 32.83 51.34 35.26Q49.94 37.70 49.94 40.96L49.94 40.96Q49.94 44.00 51.38 46.51Q52.82 49.02 55.26 50.46Q57.69 51.91 60.50 51.91ZM93.72 72.12L86.72 72.12L107.47 25.54L114.01 25.54L93.72 72.12ZM100.02 53.66L94.48 57.23L79.35 25.54L87.33 25.54L100.02 53.66ZM112.04 52.97L112.04 52.97Q112.04 51.30 113.29 50.12Q114.54 48.94 116.06 48.94L116.06 48.94Q117.43 48.94 118.69 50.12Q119.94 51.30 119.94 52.97L119.94 52.97Q119.94 54.80 118.69 55.90Q117.43 57 116.06 57L116.06 57Q114.54 57 113.29 55.90Q112.04 54.80 112.04 52.97L112.04 52.97ZM135.14 57.76L135.14 57.76Q130.81 57.76 127.28 55.67Q123.74 53.58 121.69 49.74Q119.64 45.90 119.64 40.89L119.64 40.89Q119.64 35.64 121.81 31.92Q123.97 28.20 127.70 26.22Q131.42 24.24 136.06 24.24L136.06 24.24Q139.78 24.24 143.16 25.84Q146.54 27.44 148.44 30.25L148.44 30.25L148.14 32.76L148.14-1.82L155.13-1.82L155.13 57L148.06 57L148.06 49.17L148.82 51.15Q146.62 54.04 143.12 55.90Q139.63 57.76 135.14 57.76ZM137.35 51.76L137.35 51.76Q140.16 51.76 142.36 50.73Q144.57 49.70 146.01 47.88Q147.46 46.06 148.06 43.55L148.06 43.55L148.06 37.62Q147.46 35.34 145.90 33.63Q144.34 31.92 142.17 30.89Q140.01 29.87 137.35 29.87L137.35 29.87Q134.46 29.87 132.07 31.27Q129.67 32.68 128.23 35.11Q126.78 37.54 126.78 40.74L126.78 40.74Q126.78 43.85 128.23 46.32Q129.67 48.79 132.10 50.27Q134.54 51.76 137.35 51.76ZM176.04 57.76L176.04 57.76Q170.64 57.76 166.76 55.59Q162.89 53.43 160.80 49.67Q158.71 45.90 158.71 41.04L158.71 41.04Q158.71 36.40 161.06 32.60Q163.42 28.80 167.37 26.52Q171.32 24.24 176.19 24.24L176.19 24.24Q182.42 24.24 186.52 27.89Q190.63 31.54 192.07 37.92L192.07 37.92L166.16 47.04L164.48 42.86L185.76 35.11L184.24 36.10Q183.33 33.59 181.20 31.73Q179.08 29.87 175.66 29.87L175.66 29.87Q172.77 29.87 170.49 31.27Q168.21 32.68 166.92 35.11Q165.62 37.54 165.62 40.66L165.62 40.66Q165.62 43.93 166.99 46.40Q168.36 48.87 170.75 50.27Q173.15 51.68 176.19 51.68L176.19 51.68Q178.24 51.68 180.18 50.92Q182.12 50.16 183.79 48.94L183.79 48.94L187.06 54.19Q184.70 55.78 181.77 56.77Q178.85 57.76 176.04 57.76ZM207.05 57.91L206.67 57.91L189.19 25.54L197.55 25.54L209.40 50.54L205.07 50.39L215.94 25.54L223.84 25.54L207.05 57.91Z" transform="translate(0, 0)"></path></g></svg></svg>